<svg width="179" height="219" viewBox="0 0 179 219" fill="none" xmlns="http://www.w3.org/2000/svg">
<path d="M11.2986 180.692V196.213H18.5285C20.1872 196.213 21.397 195.854 22.1581 195.135C22.9386 194.398 23.4557 192.951 23.7094 190.796H24.7925V204.163H23.7094C23.6899 202.629 23.485 201.503 23.0947 200.785C22.724 200.067 22.1971 199.533 21.5141 199.183C20.8506 198.814 19.8554 198.63 18.5285 198.63H11.2986V211.035C11.2986 213.035 11.4254 214.355 11.6791 214.996C11.8742 215.481 12.284 215.899 12.9085 216.248C13.7671 216.714 14.6647 216.947 15.6014 216.947H17.0357V218.024H0V216.947H1.405C3.04417 216.947 4.23452 216.471 4.97605 215.52C5.44439 214.899 5.67855 213.404 5.67855 211.035V185.526C5.67855 183.526 5.55171 182.206 5.29803 181.565C5.10289 181.08 4.70286 180.663 4.09793 180.313C3.25883 179.847 2.36119 179.614 1.405 179.614H0V178.537H29.5343L29.9149 187.215H28.8904C28.383 185.37 27.7878 184.021 27.1049 183.167C26.4414 182.293 25.612 181.662 24.6168 181.274C23.6411 180.886 22.119 180.692 20.0506 180.692H11.2986Z" fill="#42B3D6"/>
<path d="M48.6436 200.358V211.318C48.6436 213.411 48.6899 214.695 48.7825 215.169C48.8884 215.63 49.0472 215.952 49.2589 216.137C49.4839 216.321 49.7419 216.413 50.0331 216.413C50.4433 216.413 50.9064 216.301 51.4225 216.077L51.7004 216.768L46.2616 219H45.3683V215.169C43.8068 216.854 42.6158 217.914 41.7954 218.348C40.9749 218.783 40.1081 219 39.195 219C38.1761 219 37.2894 218.71 36.5351 218.131C35.7941 217.539 35.278 216.782 34.9868 215.86C34.6957 214.938 34.5501 213.635 34.5501 211.95V203.873C34.5501 203.017 34.4575 202.425 34.2723 202.096C34.087 201.767 33.8091 201.516 33.4386 201.345C33.0813 201.161 32.4262 201.075 31.4734 201.089V200.358H37.8452V212.463C37.8452 214.149 38.1364 215.254 38.7186 215.781C39.3141 216.308 40.0287 216.571 40.8624 216.571C41.4314 216.571 42.0733 216.393 42.7878 216.038C43.5157 215.682 44.3758 215.004 45.3683 214.004V203.755C45.3683 202.728 45.1764 202.036 44.7927 201.681C44.4222 201.312 43.6414 201.115 42.4504 201.089V200.358H48.6436Z" fill="#42B3D6"/>
<path d="M59.2831 190.365V214.359C59.2831 215.491 59.3625 216.242 59.5213 216.61C59.6933 216.979 59.9514 217.262 60.2954 217.46C60.6395 217.644 61.2813 217.736 62.2209 217.736V218.447H53.3083V217.736C54.142 217.736 54.711 217.651 55.0154 217.479C55.3197 217.308 55.5579 217.025 55.73 216.63C55.902 216.235 55.988 215.478 55.988 214.359V197.929C55.988 195.888 55.9417 194.638 55.8491 194.177C55.7564 193.703 55.6042 193.38 55.3925 193.209C55.194 193.038 54.936 192.952 54.6184 192.952C54.2743 192.952 53.8376 193.058 53.3083 193.268L52.9708 192.577L58.3898 190.365H59.2831Z" fill="#42B3D6"/>
<path d="M70.5975 190.365V214.359C70.5975 215.491 70.6769 216.242 70.8357 216.61C71.0078 216.979 71.2658 217.262 71.6099 217.46C71.9539 217.644 72.5957 217.736 73.5353 217.736V218.447H64.6227V217.736C65.4564 217.736 66.0254 217.651 66.3298 217.479C66.6342 217.308 66.8724 217.025 67.0444 216.63C67.2164 216.235 67.3024 215.478 67.3024 214.359V197.929C67.3024 195.888 67.2561 194.638 67.1635 194.177C67.0709 193.703 66.9187 193.38 66.7069 193.209C66.5084 193.038 66.2504 192.952 65.9328 192.952C65.5887 192.952 65.152 193.058 64.6227 193.268L64.2853 192.577L69.7043 190.365H70.5975Z" fill="#42B3D6"/>
<path d="M126.914 189.837V213.831C126.914 214.963 126.993 215.713 127.152 216.082C127.324 216.451 127.582 216.734 127.926 216.931C128.27 217.116 128.912 217.208 129.852 217.208V217.919H120.939V217.208C121.773 217.208 122.342 217.122 122.646 216.951C122.951 216.78 123.189 216.497 123.361 216.102C123.533 215.707 123.619 214.95 123.619 213.831V197.4C123.619 195.36 123.573 194.109 123.48 193.648C123.387 193.174 123.235 192.852 123.023 192.681C122.825 192.51 122.567 192.424 122.249 192.424C121.905 192.424 121.468 192.529 120.939 192.74L120.602 192.049L126.021 189.837H126.914Z" fill="#0090A8"/>
<path d="M142.278 215.312C140.412 216.747 139.241 217.576 138.764 217.8C138.05 218.129 137.289 218.294 136.482 218.294C135.224 218.294 134.186 217.866 133.365 217.01C132.558 216.154 132.154 215.029 132.154 213.633C132.154 212.751 132.353 211.988 132.75 211.343C133.292 210.447 134.232 209.605 135.568 208.815C136.918 208.025 139.155 207.064 142.278 205.932V205.221C142.278 203.417 141.987 202.179 141.404 201.508C140.835 200.837 140.002 200.501 138.903 200.501C138.07 200.501 137.408 200.725 136.918 201.172C136.415 201.62 136.164 202.133 136.164 202.713L136.204 203.858C136.204 204.464 136.045 204.931 135.727 205.26C135.423 205.589 135.019 205.754 134.516 205.754C134.027 205.754 133.623 205.583 133.306 205.24C133.001 204.898 132.849 204.431 132.849 203.838C132.849 202.706 133.431 201.666 134.596 200.718C135.76 199.77 137.395 199.296 139.499 199.296C141.113 199.296 142.437 199.566 143.469 200.106C144.249 200.514 144.825 201.153 145.196 202.022C145.434 202.588 145.553 203.746 145.553 205.497V211.639C145.553 213.363 145.586 214.423 145.652 214.818C145.718 215.2 145.824 215.457 145.97 215.588C146.129 215.72 146.307 215.786 146.506 215.786C146.717 215.786 146.903 215.74 147.062 215.648C147.339 215.476 147.875 214.996 148.669 214.206V215.312C147.187 217.287 145.771 218.274 144.422 218.274C143.773 218.274 143.257 218.05 142.873 217.603C142.489 217.155 142.291 216.391 142.278 215.312ZM142.278 214.028V207.136C140.28 207.926 138.989 208.486 138.407 208.815C137.362 209.394 136.614 210 136.164 210.632C135.714 211.264 135.489 211.955 135.489 212.705C135.489 213.653 135.774 214.443 136.343 215.075C136.912 215.694 137.567 216.003 138.308 216.003C139.313 216.003 140.637 215.345 142.278 214.028Z" fill="#0090A8"/>
<path d="M161.79 199.296V205.458H161.135C160.632 203.522 159.984 202.206 159.19 201.508C158.409 200.81 157.41 200.461 156.192 200.461C155.266 200.461 154.518 200.705 153.949 201.192C153.38 201.679 153.096 202.219 153.096 202.811C153.096 203.549 153.308 204.181 153.731 204.707C154.141 205.247 154.975 205.82 156.232 206.425L159.13 207.827C161.817 209.131 163.16 210.849 163.16 212.982C163.16 214.627 162.531 215.957 161.274 216.971C160.03 217.971 158.634 218.472 157.086 218.472C155.974 218.472 154.704 218.274 153.275 217.879C152.838 217.747 152.481 217.682 152.203 217.682C151.898 217.682 151.66 217.853 151.488 218.195H150.833V211.738H151.488C151.859 213.581 152.567 214.97 153.612 215.904C154.657 216.839 155.829 217.306 157.125 217.306C158.039 217.306 158.78 217.043 159.349 216.517C159.931 215.977 160.222 215.332 160.222 214.581C160.222 213.673 159.898 212.909 159.249 212.29C158.614 211.672 157.337 210.888 155.418 209.94C153.5 208.993 152.242 208.137 151.647 207.373C151.051 206.623 150.754 205.675 150.754 204.53C150.754 203.042 151.263 201.798 152.282 200.797C153.314 199.797 154.644 199.296 156.272 199.296C156.986 199.296 157.853 199.448 158.872 199.75C159.547 199.948 159.997 200.047 160.222 200.047C160.434 200.047 160.599 200.001 160.718 199.908C160.837 199.816 160.976 199.612 161.135 199.296H161.79Z" fill="#0090A8"/>
<path d="M177.63 199.296V205.458H176.975C176.472 203.522 175.824 202.206 175.03 201.508C174.249 200.81 173.25 200.461 172.033 200.461C171.106 200.461 170.359 200.705 169.79 201.192C169.221 201.679 168.936 202.219 168.936 202.811C168.936 203.549 169.148 204.181 169.571 204.707C169.982 205.247 170.815 205.82 172.072 206.425L174.97 207.827C177.657 209.131 179 210.849 179 212.982C179 214.627 178.371 215.957 177.114 216.971C175.87 217.971 174.474 218.472 172.926 218.472C171.814 218.472 170.544 218.274 169.115 217.879C168.678 217.747 168.321 217.682 168.043 217.682C167.738 217.682 167.5 217.853 167.328 218.195H166.673V211.738H167.328C167.699 213.581 168.407 214.97 169.452 215.904C170.498 216.839 171.669 217.306 172.966 217.306C173.879 217.306 174.62 217.043 175.189 216.517C175.771 215.977 176.062 215.332 176.062 214.581C176.062 213.673 175.738 212.909 175.09 212.29C174.454 211.672 173.177 210.888 171.259 209.94C169.34 208.993 168.083 208.137 167.487 207.373C166.892 206.623 166.594 205.675 166.594 204.53C166.594 203.042 167.103 201.798 168.122 200.797C169.154 199.797 170.484 199.296 172.112 199.296C172.827 199.296 173.693 199.448 174.712 199.75C175.387 199.948 175.837 200.047 176.062 200.047C176.274 200.047 176.439 200.001 176.558 199.908C176.678 199.816 176.817 199.612 176.975 199.296H177.63Z" fill="#0090A8"/>
<path d="M112.631 177.528L113.655 189.992H112.631C111.596 186.886 110.26 184.546 108.621 182.974C106.259 180.702 103.225 179.567 99.5173 179.567C94.4632 179.567 90.619 181.557 87.9846 185.536C85.7795 188.895 84.677 192.894 84.677 197.534C84.677 201.3 85.4088 204.737 86.8723 207.843C88.3359 210.949 90.2482 213.23 92.6094 214.686C94.9901 216.123 97.4294 216.841 99.9271 216.841C101.391 216.841 102.805 216.657 104.171 216.288C105.537 215.919 106.855 215.375 108.123 214.657V203.242C108.123 201.262 107.967 199.971 107.655 199.369C107.362 198.748 106.894 198.282 106.25 197.971C105.625 197.641 104.513 197.476 102.913 197.476V196.369H118.28V197.476H117.548C116.026 197.476 114.982 197.981 114.416 198.99C114.026 199.709 113.831 201.126 113.831 203.242V215.327C111.587 216.531 109.372 217.414 107.186 217.977C105.001 218.54 102.571 218.821 99.8979 218.821C92.2289 218.821 86.404 216.375 82.4231 211.483C79.4375 207.814 77.9447 203.582 77.9447 198.786C77.9447 195.311 78.7838 191.982 80.462 188.798C82.4524 185.012 85.1844 182.1 88.6578 180.062C91.5654 178.373 94.9999 177.528 98.9612 177.528C100.405 177.528 101.713 177.645 102.883 177.878C104.074 178.111 105.752 178.625 107.918 179.421C109.011 179.829 109.743 180.033 110.113 180.033C110.484 180.033 110.796 179.868 111.05 179.538C111.323 179.188 111.489 178.518 111.548 177.528H112.631Z" fill="#0090A8"/>
<path d="M45.9018 128.958C45.9018 128.958 36.2595 133.209 37.2456 137.57C38.2318 141.93 50.8326 145.527 72.3087 146.072C93.7848 146.617 148.428 148.522 138.271 134.626C135.641 131.029 131.916 128.958 131.916 128.958C131.916 128.958 150.762 132.991 150.981 137.679C151.201 142.366 134.765 151.523 84.9095 150.651C35.0542 149.779 22.2342 140.513 24.6448 137.351C27.0554 134.19 36.0403 130.266 45.9018 128.958Z" fill="#0091A9"/>
<path d="M47.8741 153.049C47.8741 153.049 57.3368 155.568 72.1991 156.428C91.3523 157.537 117.847 156.731 127.533 153.049C127.533 153.049 110.549 161.115 89.9498 161.115C69.3502 161.115 51.49 155.229 47.8741 153.049Z" fill="#42B3D6"/>
<path d="M73.1853 82.0839L55.1059 138.987C55.1059 138.987 61.5706 141.058 68.0354 141.058L73.1853 82.0839Z" fill="#42B3D6"/>
<path d="M130.382 50.6892L101.893 141.712C101.893 141.712 108.906 141.058 115.371 141.058L130.382 50.6892Z" fill="#42B3D6"/>
<path d="M112.083 24.9631L77.349 141.058C77.349 141.058 85.1286 141.712 91.5934 141.712L112.083 24.9631Z" fill="#42B3D6"/>
<path d="M93.5657 61.1541L73.1853 82.0839L89.8402 73.4721L93.5657 61.1541Z" fill="#42B3D6"/>
<path d="M149.776 31.5036L130.382 50.6892L144.736 47.2009L149.776 31.5036Z" fill="#42B3D6"/>
<path d="M135.422 0L112.083 24.9631L120.411 48.6181L135.422 0Z" fill="#42B3D6"/>
<path d="M68.0354 141.058L89.8402 73.4721L73.1853 82.0839L68.0354 141.058Z" fill="#0089A2"/>
<path d="M91.5934 141.712L120.411 48.6181L112.083 24.9631L91.5934 141.712Z" fill="#0089A2"/>
<path d="M115.371 141.058L144.736 47.2009L130.382 50.6892L115.371 141.058Z" fill="#0089A2"/>
<path d="M133.45 34.3379C133.45 34.3379 114.114 26.1513 114.687 22.1779C115.26 18.2045 122.712 1.41712 122.712 1.41712C122.712 1.41712 112.412 22.0198 109.454 21.6928C106.495 21.3658 89.8402 13.9532 89.8402 13.9532C89.8402 13.9532 108.577 22.8919 108.577 24.9631C108.577 27.0343 92.3604 61.6992 92.3604 61.6992C92.3604 61.6992 109.399 28.8329 112.576 27.8518C115.754 26.8707 133.45 34.3379 133.45 34.3379Z" fill="#96D9E8"/>
</svg>
