<svg width="234" height="95" viewBox="0 0 234 95" fill="none" xmlns="http://www.w3.org/2000/svg">
<path d="M93.248 45.375V19.825H97.1187V30.5H109.786V19.825H113.657V45.5499H109.786V33.825H97.1187V45.375H93.248Z" fill="#6D6E70"/>
<path d="M121.926 27.875V38.375C122.102 41 124.389 42.75 127.028 42.575C129.316 42.4 131.075 40.65 131.251 38.375V27.875H134.946V38.375C134.946 42.4 132.659 44.675 128.436 45.725V53.25H124.741V45.725C120.519 44.675 118.231 42.4 118.231 38.375V27.875H121.926Z" fill="#6D6E70"/>
<path d="M153.244 44.675C151.836 45.375 150.253 45.725 148.494 45.9C142.688 45.9 138.289 42.05 138.289 36.975C138.289 31.9 142.336 27.7 148.494 27.7C154.651 27.7 158.346 32.075 158.346 36.45V44.325C158.346 50.975 153.772 54.125 147.966 54.125C145.679 54.125 143.567 53.775 141.456 53.075L142.336 50.1C144.095 50.625 146.03 50.975 147.79 50.975C151.133 50.975 154.651 49.75 154.651 45.375V37.15C154.651 33.65 151.66 30.85 148.142 30.85C144.623 30.85 141.808 33.825 141.808 37.325C141.808 40.825 144.799 42.925 148.494 42.925C150.077 42.75 151.66 42.4 153.068 41.525L153.244 44.675Z" fill="#6D6E70"/>
<path d="M173.125 30.85H166.087V40.125C166.087 41.7 166.967 42.225 168.902 42.225H173.301V45.375H168.374C165.559 45.725 162.92 43.625 162.568 40.825C162.568 40.475 162.568 40.125 162.568 39.775V23.5H166.263V27.875H173.477L173.125 30.85Z" fill="#6D6E70"/>
<path d="M111.546 53.0751H108.907C102.221 53.0751 97.4706 57.1001 97.4706 62.7001C97.4706 67.9501 101.869 72.3251 107.147 72.3251C107.323 72.3251 107.323 72.3251 107.499 72.3251H111.722V75.4751H107.323C99.23 75.4751 93.248 70.0501 93.248 62.7001C93.248 56.5751 99.0541 49.925 108.379 49.925H111.37L111.546 53.0751Z" fill="#6D6E70"/>
<path d="M114.361 75.3V49.75H118.056V59.375C119.464 58.15 121.223 57.45 123.158 57.45C127.733 57.45 131.427 59.2 131.427 65.15V75.3H127.733V65.15C127.733 61.65 125.446 60.6 122.806 60.6C120.167 60.425 118.056 62.525 117.88 64.975V65.15V75.3H114.361V75.3Z" fill="#6D6E70"/>
<path d="M141.104 69.525L139.696 66.9L149.549 62C148.317 60.775 146.734 60.075 144.974 60.25C141.631 60.075 138.816 62.7 138.464 66.025C138.288 69.35 140.928 72.15 144.27 72.5C144.446 72.5 144.622 72.5 144.974 72.5C149.197 72.5 150.956 70.225 151.66 67.075L155.355 67.425C154.827 72.15 150.604 75.65 144.974 75.65C139.344 75.65 134.594 71.975 134.594 66.55C134.594 61.125 139.344 57.45 144.974 57.45C149.021 57.275 152.716 59.375 154.651 63.05L141.104 69.525Z" fill="#6D6E70"/>
<path d="M157.114 75.3V63.4C157.114 60.075 160.105 57.45 164.328 57.45C166.615 57.275 168.726 58.325 170.134 59.9C171.541 58.325 173.653 57.275 175.94 57.45C179.986 57.45 183.153 60.075 183.153 63.4V75.3H179.459V64.1C179.635 62.175 178.227 60.6 176.292 60.425C176.116 60.425 175.94 60.425 175.94 60.425C173.653 60.425 172.069 61.65 172.069 64.625V75.3H168.374V64.625C168.374 61.65 166.791 60.425 164.504 60.425C162.568 60.425 160.985 61.825 160.985 63.75C160.985 63.925 160.985 64.1 160.985 64.1V75.3H157.114Z" fill="#6D6E70"/>
<path d="M187.552 51.85C188.607 52.025 189.487 52.9 189.311 53.95C189.135 55 188.255 55.875 187.2 55.7C186.144 55.525 185.44 54.825 185.44 53.775C185.44 52.725 186.32 51.85 187.552 51.85ZM185.792 75.3V57.8H189.487V75.3H185.792Z" fill="#6D6E70"/>
<path d="M205.674 60.775H202.858C199.34 60.775 195.997 62.7 195.997 66.55C195.997 70.4 199.34 72.325 202.683 72.325H205.498V75.475H201.979C197.404 75.475 191.95 72.325 191.95 66.725C191.95 61.125 197.228 57.975 201.979 57.975H205.498V60.775H205.674Z" fill="#6D6E70"/>
<path d="M223.267 75.3V65.5C223.267 62.175 220.1 60.6 216.758 60.6C213.415 60.25 210.424 62.7 210.072 66.025C209.72 69.35 212.183 72.325 215.526 72.675C215.878 72.675 216.23 72.675 216.582 72.675C218.517 72.675 220.276 71.8 221.508 70.225V74.075C219.924 75.3 217.989 75.825 216.054 75.825C210.952 76 206.553 71.975 206.201 66.9C206.201 66.725 206.201 66.55 206.201 66.55C206.201 61.475 210.072 57.625 216.406 57.625C222.739 57.625 226.434 60.95 226.434 66.025V75.65L223.267 75.3Z" fill="#6D6E70"/>
<path d="M230.306 75.3V49.75H234V75.3H230.306Z" fill="#6D6E70"/>
<path d="M82.8676 71.275C84.627 72.15 84.627 23.325 82.8676 24.375C84.627 23.325 42.0496 -1.00002 42.0496 0.924981C42.0496 -1.00002 -0.527859 23.325 1.23154 24.375C-0.351919 23.325 -0.351919 72.325 1.23154 71.275C-0.351919 72.325 42.0496 96.65 42.0496 94.725C42.0496 96.65 84.627 72.325 82.8676 71.275Z" fill="#237AB9"/>
<path d="M69.6719 29.1H62.1064V55.175H69.6719V29.1Z" fill="white"/>
<path d="M39.7623 55.35V45.725H55.9487V39.075H39.7623V29.275H32.1968V39.075H23.048C18.1217 39.075 14.251 42.925 14.251 47.825V57.8C14.251 62.7 18.1217 66.55 23.048 66.55H48.0314V59.9H27.2705C24.8074 59.9 22.872 57.975 22.872 55.525V50.275C22.872 47.825 24.8074 45.9 27.2705 45.9H32.1968V55.35H39.7623V55.35Z" fill="white"/>
</svg>
