<svg width="259" height="194" viewBox="0 0 259 194" fill="none" xmlns="http://www.w3.org/2000/svg">
<path d="M51.0435 163.241L51.5284 173.766C46.0245 175.075 40.9901 175.73 36.4251 175.73C31.2437 175.73 26.4519 175.118 22.0496 173.896C17.6474 172.673 13.7685 170.803 10.4132 168.285C7.11844 165.833 4.46993 162.616 2.69586 158.913C0.898619 155.189 0 150.896 0 146.033C0 141.171 0.809563 136.818 2.42869 132.974C3.98735 129.213 6.40763 125.869 9.49493 123.213C12.5859 120.55 16.3024 118.548 20.6444 117.207C24.9864 115.866 29.8431 115.196 35.2144 115.198C40.0066 115.198 45.3489 116.057 51.2413 117.775L50.1726 127.995C45.8012 125.84 41.0577 124.763 35.9423 124.763C31.6038 124.763 27.7822 125.6 24.4773 127.275C21.1724 128.949 18.6389 131.286 16.8767 134.284C15.1117 137.284 14.2296 140.734 14.2303 144.635C14.2303 148.682 15.1612 152.322 17.0229 155.554C18.8847 158.787 21.5314 161.29 24.9632 163.066C28.3943 164.842 32.4092 165.73 37.0078 165.73C41.3785 165.73 46.0571 164.901 51.0435 163.241Z" fill="#0066B6"/>
<path d="M71.4023 122.969H58.2891V112.143H71.4023V122.969ZM71.2098 175.295H58.4826V131.009H71.2098V175.295Z" fill="#0066B6"/>
<path d="M95.6945 193.464H82.8727V143.892C82.8727 138.826 82.7107 134.503 82.3867 130.921H94.6659L94.8615 137.909C98.6481 132.786 104.023 130.223 110.987 130.223C114.353 130.223 117.291 130.834 119.802 132.057C122.312 133.279 124.384 134.946 126.019 137.058C127.675 139.21 128.911 141.655 129.661 144.264C130.456 146.966 130.857 149.768 130.852 152.584C130.852 156.806 130.164 160.679 128.787 164.202C127.468 167.653 125.142 170.627 122.11 172.741C119.034 174.913 115.132 175.999 110.404 175.999C107.328 175.999 104.446 175.403 101.759 174.212C99.073 173.021 96.9694 171.304 95.4484 169.062C95.6104 170.547 95.6917 172.804 95.6924 175.833L95.6945 193.464ZM117.646 153.283C117.646 150.925 117.314 148.741 116.65 146.732C116.03 144.787 114.868 143.06 113.299 141.752C111.729 140.443 109.633 139.788 107.01 139.787C104.452 139.787 102.313 140.45 100.594 141.774C98.8864 143.088 97.5892 144.86 96.8547 146.885C96.079 148.959 95.6842 151.156 95.6893 153.37C95.6893 157.04 96.5714 160.206 98.3357 162.869C100.1 165.533 102.893 166.864 106.714 166.863C109.206 166.863 111.262 166.186 112.882 164.832C114.501 163.477 115.699 161.745 116.476 159.634C117.239 157.603 117.636 155.453 117.646 153.283V153.283Z" fill="#0066B6"/>
<path d="M152.428 175.296H139.701V144.329C139.538 136.963 139.408 132.523 139.312 131.009H150.87L151.162 142.19C152.262 138.695 153.938 135.9 156.188 133.804C158.438 131.707 161.377 130.659 165.004 130.659C166.262 130.677 167.515 130.824 168.743 131.096V141.84C167.06 141.433 165.571 141.23 164.275 141.229C161.264 141.229 158.868 141.942 157.088 143.369C155.323 144.769 154.041 146.686 153.421 148.85C152.756 151.077 152.424 153.516 152.425 156.166V175.294L152.428 175.296Z" fill="#0066B6"/>
<path d="M214.504 163.503L214.699 173.417C209.486 175.456 203.853 176.475 197.798 176.475C193.751 176.475 190.149 175.958 186.992 174.925C183.835 173.891 181.14 172.362 178.906 170.338C176.67 168.312 174.926 165.802 173.807 163.001C172.64 160.134 172.057 156.865 172.058 153.196C172.058 149.818 172.6 146.71 173.685 143.871C174.718 141.113 176.315 138.599 178.372 136.49C180.412 134.408 182.929 132.784 185.924 131.62C188.919 130.455 192.31 129.873 196.098 129.873C199.79 129.873 203.044 130.468 205.86 131.66C208.677 132.851 210.968 134.497 212.732 136.599C214.52 138.738 215.865 141.21 216.69 143.871C217.564 146.623 218.001 149.643 218.002 152.933C218.002 153.517 217.986 153.954 217.953 154.244C217.921 154.534 217.889 154.898 217.856 155.336C217.823 155.773 217.775 156.282 217.71 156.864H184.588C184.911 160.359 186.424 163.081 189.129 165.031C191.834 166.981 195.193 167.957 199.207 167.958C203.739 167.958 208.839 166.473 214.504 163.503ZM205.86 148.915C205.795 146.936 205.398 145.117 204.67 143.456C203.964 141.823 202.802 140.428 201.322 139.438C199.817 138.419 197.947 137.909 195.712 137.909C193.414 137.909 191.447 138.411 189.812 139.416C188.213 140.383 186.905 141.763 186.025 143.41C185.12 145.117 184.567 146.988 184.398 148.913L205.86 148.915Z" fill="#0066B6"/>
<path d="M224.276 174.106L224.858 164.421C229.391 166.516 233.568 167.565 237.388 167.565C239.443 167.576 241.477 167.16 243.362 166.343C245.239 165.53 246.178 164.264 246.179 162.548C246.179 161.065 244.835 159.8 242.147 158.753C239.46 157.705 236.764 156.673 234.061 155.655C231.358 154.638 229.018 153.213 227.043 151.381C225.068 149.548 224.08 146.989 224.081 143.702C224.081 140.562 225.109 137.988 227.165 135.98C229.221 133.973 231.836 132.512 235.009 131.596C238.214 130.676 241.533 130.212 244.867 130.221C248.462 130.221 252.509 130.791 257.009 131.933L256.086 140.528C252.136 139.392 248.655 138.824 245.645 138.824C243.442 138.824 241.402 139.159 239.525 139.828C237.648 140.497 236.709 141.66 236.708 143.317C236.708 144.743 237.995 145.928 240.57 146.874C243.144 147.82 245.847 148.766 248.679 149.712C251.513 150.658 253.941 152.068 255.964 153.943C257.987 155.818 258.999 158.501 259 161.992C259 165.163 258.021 167.81 256.062 169.932C254.104 172.055 251.57 173.61 248.462 174.6C245.272 175.6 241.946 176.101 238.603 176.083C234.652 176.082 229.876 175.423 224.276 174.106Z" fill="#0066B6"/>
<path d="M129.201 100.477H124.573V110.462H129.201V100.477Z" fill="#64B220"/>
<path d="M153.499 99.4259H148.871V109.411H153.499V99.4259Z" fill="#64B220"/>
<path d="M174.535 33.8427V109.411H160.756V43.7222L174.535 33.8427Z" fill="#078CCF"/>
<path d="M236.909 43.6171V118.765L217.556 115.927L218.397 51.815L236.909 43.6171Z" fill="#078CCF"/>
<path d="M218.397 51.815L217.556 113.51L177.586 109.411V31.6355L218.397 51.815Z" fill="#84D0F0"/>
<path d="M258.051 52.5507L257.21 123.704L240.591 118.975V43.8273L258.051 52.5507Z" fill="#84D0F0"/>
<path d="M170.677 55.6775C169.024 96.3654 150.079 102.789 150.079 102.789C150.079 102.789 143.592 97.9157 138.625 86.9641C141.12 80.8787 143.098 72.5547 143.559 61.2216C144.043 49.2999 141.21 38.7404 137.752 30.492C143.325 12.6374 151.866 0 151.866 0C151.866 0 171.987 23.4376 170.677 55.6775Z" fill="#64B220"/>
<path d="M162.251 57.8057C161.819 68.442 159.961 76.2542 157.623 81.9654C152.54 94.3674 148.137 101 148.137 101C148.137 101 132.012 87.5684 132.886 60.1159C133.913 27.8865 147.076 8.5636 147.076 8.5636C147.076 8.5636 152.296 18.2109 156.804 28.9648C160.046 36.7077 162.705 46.6187 162.251 57.8057Z" fill="#009338"/>
<path d="M143.559 61.2216C143.098 72.5546 141.119 80.8755 138.624 86.9641C133.209 100.181 125.362 102.842 125.362 102.842C125.362 102.842 110.11 91.3857 110.321 63.8491C110.531 36.3125 126.94 12.0341 126.94 12.0341C126.94 12.0341 132.949 19.0338 137.751 30.492C141.21 38.7403 144.042 49.2999 143.559 61.2216Z" fill="#64B220"/>
<path d="M136.88 65.6337C136.474 75.6183 134.73 82.9586 132.532 88.3219C127.759 99.9703 125.362 102.842 125.362 102.842C125.362 102.842 111.372 92.7225 110.321 68.4735C109.163 41.8828 122.627 19.3911 122.627 19.3911C122.627 19.3911 127.53 28.4509 131.762 38.5501C134.81 45.8241 137.307 55.1267 136.88 65.6337Z" fill="#009338"/>
<path d="M79.8174 115.664C81.6244 115.172 83.4473 114.745 85.2733 114.33C87.0992 113.915 88.9315 113.533 90.768 113.174C94.4411 112.439 98.1309 111.796 101.83 111.203C103.681 110.912 105.533 110.636 107.388 110.373L108.78 110.178L110.173 109.994C111.102 109.87 112.031 109.753 112.961 109.636C116.677 109.169 120.404 108.766 124.141 108.428C131.608 107.742 139.095 107.286 146.601 107.062C150.351 106.948 154.103 106.892 157.855 106.893L160.67 106.907C161.609 106.914 162.547 106.931 163.486 106.944C164.424 106.956 165.362 106.978 166.3 107.003C167.239 107.027 168.178 107.045 169.116 107.08C176.619 107.323 184.113 107.817 191.598 108.563L194.4 108.856C195.334 108.961 196.266 109.073 197.199 109.18L198.598 109.345L199.995 109.527C200.927 109.651 201.858 109.768 202.789 109.897C206.509 110.418 210.218 111.007 213.918 111.664C214.843 111.828 215.765 112.004 216.688 112.179L218.071 112.441L219.452 112.718L222.211 113.285L224.961 113.893C225.419 113.998 225.877 114.094 226.329 114.202L227.696 114.526L229.063 114.85C229.52 114.955 229.976 115.06 230.431 115.183C232.249 115.651 234.07 116.102 235.877 116.609C237.687 117.099 239.487 117.628 241.285 118.16C241.735 118.292 242.181 118.435 242.629 118.574L243.97 118.995C244.865 119.273 245.758 119.555 246.645 119.86L249.308 120.757C250.192 121.067 251.072 121.388 251.953 121.703L253.271 122.185C253.71 122.349 254.147 122.516 254.583 122.687L255.892 123.196L257.196 123.712L255.829 123.396L254.461 123.081L253.094 122.757L251.726 122.453C250.814 122.249 249.908 122.032 248.992 121.836L246.257 121.246C245.348 121.043 244.433 120.865 243.522 120.675L242.155 120.393C241.698 120.299 241.244 120.202 240.787 120.118C239.872 119.946 238.96 119.763 238.047 119.585L237.364 119.451L236.677 119.326L235.304 119.077C231.649 118.394 227.981 117.791 224.312 117.22L221.559 116.799L218.802 116.409L217.424 116.213L216.044 116.031C215.123 115.913 214.205 115.783 213.285 115.668C198.559 113.803 183.758 112.712 168.929 112.223C154.1 111.734 139.243 111.868 124.386 112.461C120.669 112.609 116.953 112.787 113.236 112.994C111.379 113.1 109.521 113.214 107.662 113.33C105.802 113.445 103.947 113.577 102.087 113.705C94.6872 114.235 87.257 114.865 79.8174 115.664Z" fill="#64B220"/>
</svg>
