<svg width="147" height="192" viewBox="0 0 147 192" fill="none" xmlns="http://www.w3.org/2000/svg">
<path d="M127.529 73.3288C127.529 73.3288 126.507 75.1411 126.275 75.5593C125.717 76.4886 124.928 77.1857 124.231 77.8827C121.443 80.7173 120.189 84.6206 117.494 87.5017C114.009 91.2656 109.363 93.5426 105.042 95.866C97.1907 100.048 88.3632 100.559 79.5356 99.444C75.029 98.8864 71.9161 95.9589 68.2457 93.7749C61.9271 90.0574 59.8364 83.8307 57.6527 77.7433C56.8629 75.5593 56.77 72.9571 55.2832 70.6336C54.2146 73.6076 51.9381 75.0481 49.3363 76.1169C44.969 77.9756 40.5088 79.602 36.3738 81.7861C29.5906 85.3641 20.9489 87.1299 19.1834 96.2842C12.9577 91.7303 11.0993 81.879 14.2586 73.6541C14.6303 72.6782 15.1878 71.8883 14.8161 70.6801C12.4466 63.1987 14.6303 56.6466 19.1369 50.6522C20.0197 49.444 20.6237 48.2359 20.9489 46.7489C22.1104 41.3585 24.4334 36.6188 29.3583 33.6448C30.3339 33.0407 30.7521 32.2043 31.1702 31.182C34.0508 23.7935 39.3473 19.1931 47.1526 17.6132C48.2677 17.3808 49.3363 17.2879 50.312 16.4515C55.0974 12.037 60.6727 10.1782 67.1307 11.6652C67.6882 11.8046 68.2457 12.1764 68.8497 11.5723C72.9847 7.66894 77.5843 8.59831 82.2768 10.2712C83.3454 10.6429 84.2282 11.6652 85.4826 11.247C91.8477 9.10946 96.6331 12.1764 101.279 15.8939C102.255 16.6838 103.091 17.6132 104.392 17.892C110.06 19.1002 113.405 22.9106 115.635 27.9756C116.1 29.0444 116.425 30.0202 117.68 30.5314C121.768 32.2972 123.255 35.7359 123.162 39.9645C123.162 41.405 123.301 42.6132 124.324 43.7284C127.111 46.6095 127.576 50.1875 127.111 53.9979C127.018 54.695 126.647 55.392 126.972 56.1355C127.436 57.2972 127.762 58.5054 129.295 58.8771L127.529 73.3288ZM120.096 43.2637C117.169 45.076 114.195 46.7489 111.222 48.4682C109.874 49.2582 108.434 50.0017 107.691 51.3957C106.808 53.0221 105.554 55.0667 106.622 56.6466C107.412 57.8084 109.224 56.2284 110.525 55.9031C114.799 54.8344 119.213 54.2768 123.348 52.6039C129.76 50.0017 131.757 42.195 127.204 36.8511C125.439 37.734 125.299 40.8939 122.465 40.2433C122.326 38.6634 123.255 37.5481 123.998 36.2935C126.089 32.6689 125.671 27.0463 123.116 24.4905C122.279 23.6541 121.257 22.6782 120.746 24.6299C119.352 30.0202 115.124 33.1801 111.361 36.7117C109.735 38.2452 108.062 39.6392 106.436 41.1262C105.135 42.3344 104.485 43.8214 104.717 45.5872C105.089 48.2823 106.343 48.9329 108.666 47.353C112.941 44.4255 117.54 42.195 122.372 40.3362C122.605 42.1485 121.164 42.6132 120.096 43.2637ZM64.947 2.41801C61.3696 2.92917 57.885 3.67266 54.5863 5.06671C52.2168 6.04255 53.0996 7.39013 54.6328 8.41244C60.0222 11.9905 62.3452 17.7526 65.2723 23.0965C63.4138 23.05 62.7169 21.5165 61.8342 20.3084C59.7899 17.4273 57.7457 14.5463 55.0974 12.1764C50.823 8.41244 44.7367 8.3195 40.1836 11.7582C37.7212 13.6169 35.0264 15.1039 33.2609 17.7526C31.449 20.4478 31.7742 21.2842 34.8871 21.7024C39.626 22.26 44.1327 23.6541 48.3142 26.0704C52.7744 28.6727 57.1881 31.4143 62.0665 33.273C63.6461 33.8771 65.2258 34.1559 66.8984 34.063C68.5245 33.9701 70.2435 33.6912 70.9404 32.2507C71.5444 30.9496 69.6396 30.4849 69.0356 29.5556C67.8276 27.6968 66.8055 25.7916 66.0621 23.747C68.0134 23.8399 68.7568 25.4663 69.8254 26.721C72.5201 29.8808 75.633 32.1113 80.1396 31.4143C82.1839 31.089 82.8344 30.5779 81.7193 28.4868C79.2569 23.8864 78.1883 18.7284 76.5157 13.8028C76.0976 12.5481 76.144 11.4329 76.6086 10.2247C78.4206 10.5965 78.56 12.2228 78.9781 13.524C80.1861 17.102 81.2082 20.7266 82.4627 24.2582C82.9737 25.6987 83.81 27.0463 84.6928 28.3009C85.622 29.6485 86.6906 31.5072 88.4561 31.089C89.8964 30.7173 88.8742 28.7191 89.1065 27.511C89.8499 23.8399 90.5468 20.1689 90.9185 16.405C91.8942 6.69311 86.8764 0.605747 77.1662 0.0481259C72.2413 -0.230685 71.6374 0.605747 73.3099 5.11318C70.3365 4.69497 68.2922 1.90686 64.947 2.41801ZM12.7254 68.2637C10.5882 74.3976 13.4223 85.5035 17.9754 89.918C22.1104 81.3214 29.2653 76.8604 37.0242 73.05C41.0663 71.0518 45.3407 69.4719 49.4757 67.5667C53.75 65.5686 56.2589 58.7842 54.4934 54.4162C54.1682 53.6262 53.75 53.3939 53.0067 53.6262C45.0619 55.9031 36.7455 55.1597 28.7078 56.6002C26.5242 56.9719 24.387 57.576 22.2962 58.273C20.9954 58.6913 19.7409 58.9236 18.3936 58.5518C18.6259 56.4143 20.4378 56.089 21.9246 55.5779C27.314 53.7191 32.9822 53.4868 38.6039 53.0686C43.1106 52.7433 47.6637 52.7433 52.0775 51.5351C54.5863 50.8381 56.5377 49.5834 57.4204 47.0277C58.0709 45.076 57.6063 43.7749 55.2368 43.682C50.312 43.4496 45.6659 42.102 41.0663 40.5221C36.8384 39.0816 32.4246 38.524 28.0109 38.4775C23.5042 38.431 19.8803 40.3362 17.3714 44.1466C13.8404 49.3976 12.6325 55.2061 12.9577 61.7117C15.0019 60.8288 15.4201 57.8548 17.9754 58.8307C16.9533 62.3623 13.9333 64.7321 12.7254 68.2637ZM34.4225 36.3399C40.5088 37.4552 46.2699 39.918 52.3562 41.0333C55.8408 41.6373 59.1859 41.5909 62.1594 39.3139C62.9492 38.7098 63.7855 38.0128 63.6461 36.8976C63.5068 35.6429 62.2988 35.5965 61.416 35.3176C56.4448 33.6912 52.0775 30.8567 47.3849 28.5797C44.2256 27.0463 41.0663 25.4199 37.5353 24.6764C29.4512 22.957 21.5064 29.1373 20.9489 37.734C25.2697 35.1782 29.7299 35.457 34.4225 36.3399ZM105.228 58.9236C105.739 56.786 105.461 47.8176 102.348 48.747C96.3544 46.5165 96.0756 58.5983 93.6597 61.944C91.476 64.9645 86.5977 65.4756 83.81 63.8492C81.1618 62.2693 79.8144 58.3195 80.883 55.2991C81.8587 52.6504 84.414 51.3957 86.9229 52.418C89.3853 53.3939 90.0357 55.392 89.3853 57.7154C89.0136 59.1559 87.945 60.55 86.226 59.7136C84.5069 58.8771 85.5291 57.9013 86.5977 57.0649C87.341 56.4608 87.0623 55.7173 86.3189 55.2991C85.3897 54.7414 84.4605 54.9738 83.7636 55.8567C82.2304 57.7154 83.1596 61.0147 85.5755 61.8046C87.945 62.6411 90.1751 62.2693 91.7083 60.1782C93.6597 57.5295 93.9849 54.6485 92.3123 51.7675C90.361 48.4217 85.4361 46.6559 81.5799 47.7247C77.4449 48.8864 74.0998 52.9756 74.0998 56.8325C74.0533 65.1039 77.6772 69.8901 85.0645 71.4236C94.9606 73.4217 102.812 68.5426 105.228 58.9236ZM92.4981 23.1894C91.8942 25.6522 91.3366 28.115 91.2902 30.7173C91.2437 33.5518 93.2415 34.1559 95.2393 34.853C97.8411 35.7359 97.5159 33.2266 98.0734 32.1578C100.118 28.3939 101.976 24.4905 103.788 20.5872C107.83 11.9905 104.95 5.48493 95.7504 2.69682C93.799 2.09274 91.8012 1.34924 89.2924 1.9998C94.7282 8.55184 94.3566 15.7544 92.4981 23.1894ZM104.578 25.6057C103.138 28.4403 101.697 31.3214 100.025 34.063C98.4916 36.5258 99.3278 38.431 100.907 40.3362C101.883 41.4979 102.766 41.9162 104.113 40.5221C107.04 37.5017 110.153 34.76 113.173 31.786C120.374 24.7228 119.585 16.7768 111.129 11.1541C110.153 10.5035 109.038 10.0388 107.412 9.2024C109.874 15.615 107.087 20.5872 104.578 25.6057ZM108.155 65.8474C106.576 65.708 105.042 65.4756 103.556 65.8939C101.837 66.405 99.6995 67.3344 99.5601 68.9608C99.4208 70.4942 101.79 70.5872 103.184 71.1448C106.854 72.6318 110.293 74.6764 114.149 75.8846C120.978 78.0221 125.485 76.9533 128.087 65.3362C121.49 68.4496 114.799 66.5444 108.155 65.8474ZM103.788 83.8307C105.925 85.9682 108.573 86.4329 111.501 85.55C115.31 84.3883 118.47 82.3437 121.304 78.7191C114.242 80.1132 108.945 76.721 103.463 73.9794C98.538 71.4701 97.0048 71.1912 92.8698 72.3994C96.6331 76.3492 100.164 80.1597 103.788 83.8307ZM130.689 54.6485C130.782 53.6727 130.875 52.4645 129.945 51.9533C129.016 51.4422 128.412 52.511 127.715 52.9756C124.091 55.4849 119.863 56.4143 115.635 57.3437C112.43 58.0407 108.992 58.1801 106.204 60.2247C105.414 60.7823 104.346 61.4794 104.624 62.5017C104.903 63.6169 106.158 63.0593 106.947 63.1522C111.082 63.6169 115.264 64.1745 119.445 64.4069C125.346 64.7321 129.063 62.0834 130.224 56.879C130.41 56.182 130.642 55.4385 130.689 54.6485ZM87.5733 73.9329C90.5003 80.392 91.8942 86.7582 96.0756 91.7303C99.2814 95.5407 104.253 95.4478 110.06 91.8232C100.582 88.6169 98.1663 77.0927 87.5733 73.9329ZM89.3853 84.5277C88.0844 81.4608 87.2481 78.115 85.0645 75.4663C84.414 74.6764 83.5777 74.0258 82.602 74.3976C81.5335 74.7693 82.1839 75.8381 82.1839 76.6281C82.1374 79.7414 82.1839 82.8548 82.1374 85.9682C82.0445 93.2637 85.2503 96.6095 92.4981 96.6559C93.9384 96.6559 95.3322 96.6095 97.8411 96.5165C92.7769 93.3102 91.1972 88.8492 89.3853 84.5277ZM71.8697 83.5054C68.9426 89.6392 73.8675 96.5165 80.6042 95.9589C81.4405 95.9124 82.1374 95.5407 81.6264 94.6113C78.3741 89.2675 80.0467 83.366 79.6286 77.7433C79.4892 75.9775 79.6286 74.1188 78.0954 72.2136C75.9117 76.2098 73.6816 79.7414 71.8697 83.5054ZM74.425 72.7247C74.9361 71.6095 75.4936 70.5872 75.2148 69.3325C74.8431 67.3344 74.2856 66.4515 72.3343 68.2637C70.7546 69.7043 68.8962 70.8195 67.0842 72.0277C59.2324 77.3716 59.4182 83.366 67.967 88.524C68.2457 82.3901 72.009 77.8362 74.425 72.7247ZM60.3939 75.234C62.3917 71.9347 65.551 69.9831 68.6639 67.9849C69.7325 67.2879 70.7546 66.405 71.5909 65.4292C72.7524 64.1281 72.1484 62.5481 71.3121 61.4794C70.3365 60.2712 69.082 61.1076 68.2457 61.944C66.1085 64.0816 63.0422 64.221 60.6727 65.8939C57.5598 68.0779 56.5377 71.1913 58.0244 74.5834C58.2567 75.0946 58.5819 75.6058 58.7678 75.9775C59.8364 76.3028 60.1151 75.7452 60.3939 75.234ZM59.6041 55.6243C57.0952 56.3214 55.7478 58.0872 55.3762 60.4106C55.0974 62.1299 54.6328 64.4069 56.1195 65.4756C57.4204 66.405 58.2567 64.1281 59.5112 63.5704C62.5311 62.2228 65.5046 60.6894 68.478 59.1559C69.4072 58.6913 70.5223 57.9478 70.3829 56.786C70.2435 55.392 68.7103 55.7637 67.6882 55.3455C65.04 55.2061 62.3452 54.8808 59.6041 55.6243ZM84.8786 44.1931C85.5291 43.5425 84.7857 42.892 84.5998 42.2414C84.1352 40.5221 83.7171 38.7563 83.1596 37.0834C81.9981 33.5983 78.0954 31.9254 74.7502 33.4124C74.0533 33.7377 72.7059 34.2953 73.8675 35.0853C76.748 37.0834 77.956 40.2433 80.0932 42.7526C80.7436 43.5426 81.8587 43.9143 82.4162 44.2396C83.5313 44.4255 84.3211 44.7507 84.8786 44.1931ZM73.6816 38.7098C72.0555 36.7582 70.1042 36.5258 67.8276 37.4087C66.8055 37.7805 65.551 38.1522 65.4116 39.3139C65.2258 40.9403 66.8519 40.5221 67.7347 40.8939C69.8719 41.8697 71.5444 43.3567 73.1241 45.0295C74.8896 46.9812 76.8409 47.5853 79.4427 45.6801C77.4914 43.3102 75.5865 41.0333 73.6816 38.7098ZM92.4981 44.7043C92.3123 45.773 91.9406 47.0741 93.0557 47.6318C94.1707 48.1894 94.4959 46.7024 95.1929 46.1912C95.3787 46.0518 95.5181 45.866 95.7039 45.6801C100.35 40.8474 99.7924 38.3381 93.1486 35.457C93.288 38.8492 92.9627 41.7768 92.4981 44.7043ZM63.0886 48.5611C61.0443 48.3753 58.9536 48.3753 57.6063 50.4199C57.0952 51.2098 56.4448 52.1857 57.0487 53.0686C57.6527 53.9979 58.5819 53.1615 59.2788 52.8827C62.2523 51.7675 65.1793 53.0686 68.1528 52.9292C69.3143 52.8827 70.5223 53.3009 72.102 52.2321C69.1749 50.3269 66.3409 48.8864 63.0886 48.5611ZM87.0623 33.2266C86.4118 32.9478 85.6684 32.576 85.018 33.0407C84.1817 33.5983 84.9251 34.2953 85.1109 34.8994C85.7614 37.3158 86.3189 39.7321 87.0623 42.102C87.3875 43.2173 87.8985 44.6578 89.2924 44.5184C90.6397 44.379 90.8256 42.892 91.1508 41.9626C91.9406 37.8734 90.361 34.5741 87.0623 33.2266Z" fill="#015A7C"/>
<path d="M44.3698 142.597H44.6021L50.6884 109.744H62.5823L50.9672 160.441H39.9096L31.3609 129.167H31.175L22.7192 160.441H11.6616L0 109.744H11.9404L18.0731 142.643L18.3054 142.69L26.9006 109.744H35.7746L44.3698 142.597Z" fill="#015A7C"/>
<path d="M96.7311 138.74H78.8903V151.379H100.309V160.441H67.1357V109.744H100.355V118.805H78.9367V129.678H96.7776V138.74H96.7311Z" fill="#015A7C"/>
<path d="M146.954 153.424C145.189 155.561 142.726 157.374 139.521 158.907C136.315 160.394 132.18 161.184 127.162 161.184C120.89 161.184 115.779 159.279 111.83 155.422C107.927 151.565 105.93 146.593 105.93 140.413V129.771C105.93 123.684 107.835 118.665 111.644 114.809C115.454 110.952 120.379 109 126.372 109C132.83 109 137.755 110.441 141.054 113.322C144.353 116.203 145.932 120.152 145.839 125.171L145.793 125.357H134.782C134.782 122.894 134.131 121.035 132.784 119.827C131.483 118.619 129.485 118.015 126.79 118.015C124.049 118.015 121.866 119.084 120.193 121.268C118.52 123.405 117.684 126.24 117.684 129.678V140.32C117.684 143.851 118.52 146.686 120.193 148.823C121.866 150.961 124.189 152.03 127.162 152.03C129.299 152.03 131.018 151.844 132.273 151.519C133.527 151.193 134.503 150.729 135.2 150.125V141.156H126.233V133.349H146.954V153.424Z" fill="#015A7C"/>
<path d="M8.22322 191.621H6.64355V172.29H8.22322V191.621Z" fill="#015A7C"/>
<path d="M27.7833 191.621H26.2037L15.239 175.078H15.1461V191.621H13.5664V172.29H15.1461L26.1108 188.786H26.2037V172.29H27.7833V191.621Z" fill="#015A7C"/>
<path d="M46.4606 189.019C46.0425 189.716 45.2527 190.366 44.0911 190.97C42.9296 191.574 41.4894 191.9 39.7703 191.9C37.5402 191.9 35.7283 191.156 34.3344 189.623C32.9406 188.089 32.1973 186.091 32.1973 183.675V180.143C32.1973 177.773 32.8942 175.822 34.2415 174.288C35.6353 172.801 37.4008 172.011 39.5845 172.011C41.6752 172.011 43.3478 172.569 44.6022 173.684C45.8566 174.799 46.4142 176.193 46.4142 177.913L46.3677 178.006H44.9274C44.9274 176.658 44.4628 175.589 43.5336 174.706C42.6044 173.823 41.3035 173.405 39.6309 173.405C37.9119 173.405 36.5181 174.056 35.4495 175.31C34.3809 176.565 33.8698 178.191 33.8698 180.143V183.721C33.8698 185.719 34.4274 187.392 35.5424 188.693C36.6575 189.994 38.0977 190.645 39.8632 190.645C41.2106 190.645 42.3256 190.459 43.1619 190.041C43.9982 189.623 44.6022 189.158 44.9739 188.6V183.628H39.7703V182.281H46.5536V189.019H46.4606Z" fill="#015A7C"/>
<path d="M61.6998 182.234H53.0582V190.227H63.0936V191.574H51.4785V172.243H63.0007V173.591H53.0582V180.84H61.6998V182.234V182.234Z" fill="#015A7C"/>
<path d="M80.6554 191.621H79.0757L68.1111 175.078H68.0181V191.621H66.4385V172.29H68.0181L78.9828 188.786H79.0757V172.29H80.6554V191.621Z" fill="#015A7C"/>
<path d="M87.6241 191.621H85.998V172.29H87.5777V191.621H87.6241Z" fill="#015A7C"/>
<path d="M103.189 182.234H94.5474V190.227H104.583V191.574H92.9678V172.243H104.49V173.591H94.5474V180.84H103.189V182.234Z" fill="#015A7C"/>
<path d="M109.507 182.885V191.621H107.928V172.29H114.339C116.43 172.29 118.01 172.755 119.125 173.638C120.24 174.567 120.797 175.868 120.797 177.634C120.797 178.656 120.519 179.586 119.915 180.375C119.311 181.165 118.474 181.77 117.406 182.141C118.614 182.42 119.45 182.978 120.007 183.768C120.519 184.558 120.797 185.533 120.797 186.695V188.507C120.797 189.112 120.89 189.669 121.03 190.134C121.169 190.599 121.401 191.017 121.727 191.296V191.621H120.1C119.775 191.296 119.543 190.877 119.404 190.273C119.264 189.716 119.218 189.112 119.218 188.461V186.695C119.218 185.487 118.846 184.558 118.056 183.907C117.313 183.21 116.244 182.885 114.85 182.885H109.507V182.885ZM109.507 181.537H114.153C115.919 181.537 117.173 181.165 117.963 180.468C118.753 179.771 119.171 178.796 119.171 177.634C119.171 176.379 118.753 175.357 117.963 174.706C117.173 174.009 115.965 173.684 114.339 173.684H109.507V181.537V181.537Z" fill="#015A7C"/>
<path d="M128.695 166.9H130.647L130.693 166.993L127.394 170.431H125.954L128.695 166.9ZM127.673 191.621H126.093V172.29H127.673V191.621Z" fill="#015A7C"/>
<path d="M143.377 186.23H134.921L132.97 191.621H131.344L138.452 172.29H139.939L147.001 191.621H145.375L143.377 186.23ZM135.386 184.79H142.866L139.196 174.567H139.103L135.386 184.79Z" fill="#015A7C"/>
</svg>
