<?xml version="1.0" encoding="utf-8"?>
<!-- Generator: Adobe Illustrator 24.3.0, SVG Export Plug-In . SVG Version: 6.00 Build 0)  -->
<svg version="1.1" id="Layer_1" xmlns="http://www.w3.org/2000/svg" xmlns:xlink="http://www.w3.org/1999/xlink" x="0px" y="0px"
	 viewBox="0 0 176.98 242" style="enable-background:new 0 0 176.98 242;" xml:space="preserve">
<style type="text/css">
	.st0{fill:#00597B;}
	.st1{fill:#FFFFFF;}
	.st2{fill:#FFFFFF;stroke:#FFFFFF;stroke-width:0.75;stroke-miterlimit:10;}
</style>
<g>
	<rect class="st0" width="176.98" height="242"/>
	<g>
		<g>
			<path class="st1" d="M160.86,103.06c0,0-1.32,2.36-1.62,2.89c-0.7,1.23-1.73,2.1-2.66,3.04c-3.65,3.68-5.27,8.75-8.74,12.51
				c-4.5,4.88-10.55,7.86-16.16,10.83c-10.21,5.4-21.63,6.12-33.14,4.64c-5.84-0.75-9.91-4.55-14.67-7.35
				c-8.18-4.8-10.92-12.94-13.77-20.82c-1.03-2.84-1.13-6.2-3.06-9.2c-1.4,3.86-4.34,5.71-7.7,7.14c-5.65,2.4-11.45,4.5-16.86,7.37
				c-8.78,4.66-20.03,6.94-22.31,18.81c-8.08-5.89-10.47-18.69-6.39-29.41c0.48-1.25,1.2-2.3,0.71-3.85
				c-3.07-9.71-0.22-18.23,5.57-26.05c1.16-1.57,1.94-3.12,2.37-5.07c1.53-6.99,4.55-13.14,10.93-17.04
				c1.25-0.76,1.81-1.87,2.33-3.2c3.72-9.62,10.64-15.54,20.77-17.64c1.45-0.3,2.83-0.4,4.09-1.53C66.79,23.5,74,21.1,82.39,23
				c0.72,0.16,1.47,0.65,2.26-0.09c5.35-5.07,11.32-3.89,17.41-1.72c1.36,0.49,2.51,1.81,4.17,1.26c8.24-2.76,14.5,1.19,20.5,6.04
				c1.26,1.02,2.34,2.25,4.07,2.61c7.36,1.54,11.71,6.51,14.59,13.06c0.6,1.37,1.03,2.64,2.67,3.34c5.31,2.28,7.23,6.79,7.15,12.22
				c-0.03,1.89,0.17,3.46,1.52,4.86c3.64,3.76,4.23,8.38,3.64,13.31c-0.11,0.93-0.61,1.82-0.21,2.79c0.63,1.5,1.03,3.06,3,3.54
				 M176.98,80.87 M151.2,64.06c-3.79,2.34-7.69,4.5-11.51,6.79c-1.72,1.03-3.64,1.99-4.6,3.81c-1.12,2.13-2.75,4.78-1.39,6.81
				c1.01,1.51,3.36-0.54,5.09-0.97c5.56-1.39,11.29-2.09,16.68-4.27c8.33-3.38,10.91-13.49,5.03-20.48
				c-2.27,1.15-2.45,5.24-6.14,4.39c-0.2-2.03,1.04-3.49,1.97-5.1c2.72-4.69,2.15-11.98-1.15-15.35c-1.08-1.1-2.41-2.35-3.06,0.16
				c-1.84,7.01-7.32,11.11-12.21,15.7c-2.09,1.96-4.31,3.79-6.4,5.74c-1.66,1.55-2.53,3.48-2.22,5.8c0.48,3.52,2.14,4.32,5.12,2.3
				c5.56-3.78,11.55-6.69,17.8-9.1C154.48,62.57,152.58,63.2,151.2,64.06z M79.6,10.99c-4.63,0.69-9.17,1.63-13.47,3.42
				c-3.08,1.29-1.91,3.03,0.06,4.34C73.17,23.39,76.2,30.87,80,37.8c-2.42-0.05-3.34-2.02-4.46-3.62
				c-2.63-3.77-5.29-7.51-8.76-10.57c-5.55-4.89-13.46-5.03-19.36-0.56c-3.17,2.4-6.7,4.32-9,7.76c-2.35,3.51-1.94,4.6,2.13,5.14
				c6.17,0.81,11.99,2.62,17.4,5.79c5.8,3.4,11.55,6.91,17.87,9.36c2.08,0.81,4.09,1.15,6.28,1.01c2.09-0.13,4.35-0.51,5.23-2.36
				c0.8-1.68-1.68-2.28-2.49-3.52c-1.55-2.39-2.87-4.88-3.85-7.55c2.53,0.14,3.51,2.25,4.88,3.86c3.52,4.12,7.53,7.02,13.42,6.09
				c2.65-0.42,3.5-1.09,2.06-3.8c-3.19-6-4.58-12.69-6.79-19.06c-0.55-1.6-0.47-3.09,0.12-4.62c2.32,0.48,2.51,2.57,3.08,4.26
				c1.55,4.62,2.88,9.32,4.51,13.92c0.66,1.86,1.78,3.6,2.9,5.26c1.19,1.76,2.61,4.18,4.87,3.59c1.84-0.48,0.54-3.06,0.86-4.67
				c0.95-4.78,1.87-9.54,2.35-14.42c1.24-12.61-5.24-20.51-17.86-21.22c-6.38-0.36-7.19,0.7-5.01,6.58
				C86.59,13.99,83.91,10.34,79.6,10.99z M11.75,96.51c-2.79,7.96,0.91,22.36,6.84,28.11c5.38-11.18,14.68-16.97,24.73-21.93
				c5.27-2.6,10.82-4.62,16.15-7.09C65,93.03,68.26,84.2,66,78.55c-0.41-1.03-0.99-1.32-1.95-1.04
				c-10.31,2.97-21.11,1.98-31.54,3.86c-2.81,0.51-5.59,1.28-8.31,2.16c-1.7,0.55-3.32,0.82-5.05,0.39c0.3-2.76,2.64-3.19,4.61-3.88
				c7-2.44,14.35-2.74,21.64-3.27c5.86-0.43,11.77-0.44,17.5-2.01c3.23-0.88,5.82-2.56,6.93-5.86c0.84-2.5,0.23-4.22-2.85-4.36
				c-6.38-0.28-12.43-2.03-18.43-4.09c-5.48-1.87-11.21-2.58-16.96-2.63c-5.83-0.05-10.57,2.41-13.84,7.36
				c-4.52,6.81-6.11,14.33-5.68,22.82c2.63-1.16,3.21-4.98,6.53-3.76C17.24,88.84,13.36,91.93,11.75,96.51z M39.91,55.03
				c7.93,1.48,15.38,4.65,23.29,6.07c4.5,0.81,8.88,0.75,12.73-2.2c1.02-0.78,2.1-1.69,1.92-3.16c-0.2-1.66-1.73-1.69-2.92-2.08
				c-6.45-2.11-12.14-5.81-18.19-8.74c-4.13-2-8.23-4.09-12.76-5.04c-10.48-2.2-20.8,5.8-21.53,16.95
				C28.07,53.51,33.87,53.9,39.91,55.03z M131.88,84.34c0.69-2.8,0.3-14.41-3.76-13.23c-7.8-2.9-8.16,12.79-11.31,17.11
				c-2.84,3.9-9.18,4.61-12.8,2.47c-3.44-2.04-5.21-7.2-3.81-11.1c1.25-3.46,4.56-5.07,7.85-3.75c3.18,1.27,4.02,3.84,3.18,6.86
				c-0.51,1.84-1.89,3.71-4.11,2.6c-2.22-1.11-0.9-2.37,0.48-3.47c0.96-0.76,0.6-1.74-0.34-2.27c-1.24-0.71-2.4-0.43-3.32,0.69
				c-1.98,2.43-0.75,6.67,2.33,7.73c3.08,1.06,5.97,0.62,7.99-2.09c2.55-3.41,2.97-7.18,0.77-10.94c-2.53-4.32-8.91-6.63-13.94-5.23
				c-5.34,1.49-9.71,6.8-9.72,11.81c-0.03,10.74,4.63,16.96,14.22,18.95C118.54,103.17,128.78,96.85,131.88,84.34z M115.35,37.95
				c-0.8,3.19-1.54,6.39-1.58,9.75c-0.05,3.69,2.51,4.46,5.12,5.37c3.35,1.16,2.93-2.1,3.69-3.5c2.67-4.9,5.06-9.97,7.43-15.02
				c5.25-11.18,1.49-19.59-10.43-23.2c-2.52-0.76-5.12-1.76-8.37-0.92C118.26,18.97,117.75,28.31,115.35,37.95z M131.02,41.11
				c-1.86,3.71-3.74,7.42-5.91,10.95c-1.98,3.21-0.93,5.7,1.18,8.16c1.29,1.51,2.42,2.07,4.18,0.24c3.78-3.91,7.87-7.51,11.75-11.32
				c9.33-9.17,8.3-19.5-2.68-26.79c-1.27-0.84-2.7-1.44-4.8-2.54C137.93,28.16,134.28,34.61,131.02,41.11z M135.71,93.37
				c-2.02-0.2-4.02-0.5-5.97,0.06c-2.25,0.65-4.99,1.86-5.18,4c-0.18,2.01,2.93,2.12,4.69,2.83c4.78,1.95,9.24,4.62,14.21,6.17
				c8.88,2.77,14.7,1.38,18.13-13.69C152.99,96.73,144.33,94.24,135.71,93.37z M130.05,116.69c2.76,2.76,6.22,3.39,9.99,2.23
				c4.93-1.52,9.06-4.17,12.7-8.88c-9.16,1.79-16.06-2.59-23.18-6.18c-6.41-3.24-8.38-3.62-13.77-2.05
				C120.76,107.02,125.31,111.95,130.05,116.69z M164.97,78.82c0.12-1.28,0.26-2.82-0.99-3.51c-1.22-0.68-1.99,0.72-2.9,1.34
				c-4.73,3.25-10.17,4.49-15.66,5.66c-4.18,0.89-8.6,1.09-12.23,3.75c-1.01,0.74-2.4,1.61-2.08,2.99c0.34,1.47,1.97,0.72,3,0.84
				c5.4,0.63,10.8,1.31,16.23,1.63c7.67,0.44,12.5-3.04,14.01-9.76C164.57,80.79,164.88,79.82,164.97,78.82z M108.95,103.87
				c3.8,8.4,5.62,16.67,11.06,23.13c4.16,4.94,10.59,4.82,18.19,0.12C125.86,122.92,122.72,107.93,108.95,103.87z M111.3,117.63
				c-1.69-4-2.78-8.3-5.62-11.75c-0.83-1.01-1.96-1.88-3.23-1.4c-1.36,0.51-0.52,1.89-0.53,2.9c-0.03,4.04,0.01,8.08-0.04,12.12
				c-0.12,9.49,4.04,13.82,13.44,13.9c1.85,0.02,3.7-0.09,6.94-0.17C115.71,129,113.66,123.21,111.3,117.63z M88.59,116.3
				c-3.83,7.96,2.57,16.91,11.34,16.16c1.06-0.09,2.02-0.57,1.31-1.74c-4.2-6.93-2.04-14.58-2.59-21.92
				c-0.17-2.29,0.01-4.7-1.99-7.16C93.8,106.81,90.94,111.43,88.59,116.3z M91.91,102.27c0.68-1.43,1.37-2.75,1.05-4.42
				c-0.51-2.59-1.2-3.76-3.75-1.39c-2.03,1.89-4.49,3.33-6.8,4.9c-10.21,6.94-9.95,14.71,1.14,21.43
				C83.85,114.83,88.76,108.93,91.91,102.27z M73.69,105.54c2.59-4.27,6.69-6.8,10.74-9.43c1.41-0.92,2.72-2.07,3.83-3.34
				c1.5-1.71,0.73-3.75-0.36-5.15c-1.24-1.58-2.9-0.45-3.98,0.63c-2.75,2.77-6.77,2.96-9.83,5.12c-4.03,2.85-5.37,6.86-3.42,11.3
				c0.3,0.69,0.73,1.32,0.99,1.79C72.93,106.93,73.28,106.21,73.69,105.54z M72.64,80.12c-3.28,0.91-4.98,3.2-5.49,6.23
				c-0.37,2.21-0.97,5.19,0.94,6.57c1.67,1.21,2.75-1.77,4.38-2.5c3.94-1.77,7.81-3.72,11.65-5.71c1.22-0.63,2.65-1.6,2.5-3.1
				c-0.19-1.83-2.17-1.3-3.51-1.88C79.7,79.56,76.18,79.13,72.64,80.12z M105.46,65.26c0.83-0.85-0.14-1.7-0.37-2.54
				c-0.62-2.23-1.14-4.5-1.87-6.69c-1.5-4.5-6.58-6.71-10.9-4.77c-0.88,0.4-2.68,1.12-1.16,2.16c3.75,2.57,5.33,6.71,8.08,9.96
				c0.85,1,2.29,1.49,3.01,1.93C103.71,65.54,104.75,65.99,105.46,65.26z M90.95,58.15c-2.09-2.54-4.67-2.82-7.58-1.7
				c-1.32,0.51-2.94,0.98-3.13,2.49c-0.27,2.13,1.9,1.57,3.02,2.07c2.76,1.25,4.97,3.2,6.99,5.38c2.32,2.51,4.81,3.33,8.23,0.85
				C95.85,64.08,93.39,61.12,90.95,58.15z M115.39,65.93c-0.21,1.36-0.74,3.07,0.7,3.82c1.44,0.74,1.85-1.2,2.78-1.87
				c0.25-0.18,0.44-0.44,0.65-0.66c6.04-6.28,5.31-9.5-3.31-13.27C116.37,58.28,115.98,62.11,115.39,65.93z M77.15,70.92
				c-2.63-0.24-5.39-0.22-7.09,2.39c-0.66,1.01-1.48,2.32-0.72,3.45c0.8,1.18,2.01,0.12,2.92-0.22c3.86-1.42,7.68,0.24,11.53,0.04
				c1.52-0.08,3.09,0.48,5.12-0.91C85.07,73.19,81.38,71.31,77.15,70.92z M108.3,50.98c-0.85-0.35-1.8-0.84-2.65-0.26
				c-1.09,0.75-0.13,1.6,0.09,2.42c0.85,3.12,1.59,6.27,2.52,9.36c0.44,1.45,1.09,3.3,2.89,3.13c1.74-0.16,1.99-2.09,2.41-3.34
				C114.64,57.04,112.6,52.74,108.3,50.98z"/>
		</g>
		<path class="st1" d="M60.99,181.71h0.22l6.3-33.79h12.24l-11.95,52.11H56.41l-8.77-32.18h-0.21l-8.7,32.18H27.35l-11.99-52.11
			h12.28l6.3,33.82l0.22,0.04l8.84-33.86h9.13L60.99,181.71z"/>
		<path class="st1" d="M114.85,177.74H96.49v12.99h22.01v9.31H84.4v-52.11h34.14v9.31H96.49v11.2h18.36V177.74z"/>
		<path class="st1" d="M166.46,192.84c-1.81,2.2-4.37,4.07-7.66,5.62c-3.29,1.55-7.53,2.33-12.71,2.33
			c-6.47,0-11.72-1.98-15.75-5.94c-4.03-3.96-6.05-9.1-6.05-15.43v-10.88c0-6.27,1.96-11.4,5.89-15.39
			c3.92-3.98,8.98-5.98,15.16-5.98c6.66,0,11.69,1.49,15.09,4.46c3.4,2.97,5.04,7.03,4.92,12.19l-0.07,0.21h-11.35
			c0-2.55-0.68-4.45-2.04-5.69c-1.36-1.24-3.41-1.86-6.16-1.86c-2.82,0-5.08,1.11-6.8,3.33c-1.72,2.22-2.58,5.11-2.58,8.66v10.95
			c0,3.63,0.85,6.54,2.56,8.75c1.71,2.21,4.1,3.31,7.18,3.31c2.22,0,3.97-0.18,5.24-0.54c1.28-0.36,2.28-0.83,3.02-1.43v-9.31h-9.23
			v-8.02h21.33V192.84z"/>
		<path class="st2" d="M23.81,229.65h-1.64v-19.87h1.64V229.65z"/>
		<path class="st2" d="M43.95,229.65h-1.64l-11.29-17l-0.08,0.01v16.99h-1.64v-19.87h1.64l11.29,16.96l0.08-0.01v-16.95h1.64V229.65
			z"/>
		<path class="st2" d="M63.15,226.98c-0.44,0.72-1.24,1.39-2.42,2.02s-2.66,0.94-4.46,0.94c-2.28,0-4.15-0.79-5.61-2.36
			c-1.46-1.57-2.18-3.61-2.18-6.11v-3.64c0-2.46,0.7-4.46,2.12-6c1.41-1.55,3.23-2.32,5.47-2.32c2.16,0,3.87,0.57,5.14,1.71
			c1.27,1.14,1.89,2.58,1.85,4.34l-0.04,0.08h-1.5c0-1.37-0.47-2.51-1.42-3.4c-0.95-0.89-2.29-1.34-4.03-1.34
			c-1.78,0-3.22,0.65-4.31,1.94c-1.09,1.29-1.64,2.95-1.64,4.97v3.67c0,2.07,0.57,3.78,1.71,5.1c1.14,1.33,2.62,1.99,4.45,1.99
			c1.39,0,2.53-0.21,3.41-0.63c0.88-0.42,1.5-0.91,1.84-1.46v-5.09h-5.35v-1.39h6.97V226.98z"/>
		<path class="st2" d="M78.82,220.03H69.9v8.24h10.3v1.38H68.27v-19.87h11.87v1.39H69.9v7.46h8.91V220.03z"/>
		<path class="st2" d="M98.32,229.65h-1.64l-11.29-17l-0.08,0.01v16.99h-1.64v-19.87h1.64l11.29,16.96l0.08-0.01v-16.95h1.64V229.65
			z"/>
		<path class="st2" d="M105.45,229.65h-1.64v-19.87h1.64V229.65z"/>
		<path class="st2" d="M121.5,220.03h-8.91v8.24h10.3v1.38h-11.94v-19.87h11.87v1.39h-10.23v7.46h8.91V220.03z"/>
		<path class="st2" d="M127.95,220.68v8.98h-1.64V209.8h6.62c2.13,0,3.76,0.47,4.9,1.4c1.14,0.93,1.71,2.29,1.71,4.09
			c0,1.06-0.3,2-0.91,2.83s-1.46,1.44-2.57,1.82c1.23,0.31,2.11,0.86,2.65,1.66c0.54,0.8,0.81,1.79,0.81,3v1.87
			c0,0.62,0.07,1.17,0.22,1.66c0.15,0.49,0.39,0.89,0.72,1.2v0.33h-1.66c-0.34-0.33-0.57-0.79-0.71-1.38
			c-0.14-0.59-0.2-1.21-0.2-1.84v-1.81c0-1.22-0.39-2.18-1.18-2.89c-0.79-0.7-1.89-1.06-3.3-1.06H127.95z M127.95,219.28h4.79
			c1.79,0,3.1-0.36,3.93-1.08c0.83-0.72,1.24-1.7,1.24-2.93c0-1.31-0.41-2.32-1.23-3.02c-0.82-0.7-2.07-1.06-3.75-1.06h-4.98V219.28
			z"/>
		<path class="st2" d="M147.7,204.23h2.01l0.04,0.08l-3.4,3.55h-1.46L147.7,204.23z M146.65,229.65h-1.64v-19.87h1.64V229.65z"/>
		<path class="st2" d="M162.79,224.11h-8.72l-2.01,5.54h-1.69l7.3-19.87h1.54l7.25,19.87h-1.69L162.79,224.11z M154.59,222.65h7.67
			l-3.77-10.53h-0.08L154.59,222.65z"/>
	</g>
</g>
</svg>
