<svg width="275" height="100" viewBox="0 0 275 100" fill="none" xmlns="http://www.w3.org/2000/svg">
<g clip-path="url(#clip0_15_700)">
<path d="M115.547 73.3736C115.547 73.3736 114.525 75.1859 114.293 75.6041C113.735 76.5334 112.946 77.2305 112.249 77.9275C109.461 80.7621 108.207 84.6654 105.512 87.5465C102.027 91.3104 97.3813 93.5873 93.0605 95.9108C85.2087 100.093 76.3812 100.604 67.5536 99.4888C63.047 98.9312 59.9341 96.0037 56.2637 93.8197C49.9451 90.1022 47.8544 83.8755 45.6707 77.7881C44.8809 75.6041 44.788 73.0019 43.3012 70.6784C42.2327 73.6524 39.9561 75.0929 37.3543 76.1617C32.987 78.0204 28.5268 79.6468 24.3918 81.8308C17.6086 85.4089 8.9669 87.1747 7.2014 96.329C0.975684 91.7751 -0.882738 81.9238 2.27658 73.6989C2.64826 72.723 3.20579 71.9331 2.83411 70.7249C0.464618 63.2435 2.64826 56.6914 7.15494 50.697C8.03769 49.4888 8.64167 48.2807 8.9669 46.7937C10.1284 41.4033 12.4514 36.6636 17.3763 33.6896C18.3519 33.0855 18.7701 32.2491 19.1882 31.2268C22.0688 23.8383 27.3653 19.2379 35.1706 17.658C36.2857 17.4256 37.3543 17.3327 38.33 16.4963C43.1154 12.0818 48.6907 10.223 55.1487 11.71C55.7062 11.8494 56.2637 12.2212 56.8677 11.6171C61.0027 7.71374 65.6023 8.64311 70.2948 10.316C71.3634 10.6877 72.2462 11.71 73.5006 11.2918C79.8657 9.15426 84.6511 12.2212 89.2972 15.9387C90.2729 16.7286 91.1092 17.658 92.41 17.9368C98.0782 19.145 101.423 22.9554 103.654 28.0204C104.118 29.0892 104.443 30.065 105.698 30.5762C109.786 32.342 111.273 35.7807 111.18 40.0093C111.18 41.4498 111.319 42.658 112.342 43.7732C115.129 46.6543 115.594 50.2323 115.129 54.0427C115.036 54.7398 114.665 55.4368 114.99 56.1803C115.454 57.342 115.78 58.5502 117.313 58.9219L115.547 73.3736ZM108.114 43.3085C105.187 45.1208 102.213 46.7937 99.2398 48.513C97.8924 49.303 96.4521 50.0465 95.7087 51.4405C94.826 53.0669 93.5716 55.1115 94.6402 56.6914C95.43 57.8531 97.242 56.2732 98.5428 55.9479C102.817 54.8792 107.231 54.3216 111.366 52.6487C117.778 50.0465 119.775 42.2398 115.222 36.8959C113.457 37.7788 113.317 40.9387 110.483 40.2881C110.344 38.7082 111.273 37.5929 112.016 36.3383C114.107 32.7137 113.689 27.0911 111.134 24.5353C110.297 23.6989 109.275 22.723 108.764 24.6747C107.37 30.065 103.142 33.2249 99.3791 36.7565C97.753 38.29 96.0804 39.684 94.4543 41.171C93.1534 42.3792 92.503 43.8662 92.7353 45.632C93.107 48.3271 94.3614 48.9777 96.6844 47.3978C100.959 44.4702 105.558 42.2398 110.39 40.381C110.623 42.1933 109.182 42.658 108.114 43.3085ZM52.965 2.46281C49.3876 2.97397 45.903 3.71746 42.6043 5.11151C40.2348 6.08735 41.1176 7.43493 42.6508 8.45724C48.0402 12.0353 50.3632 17.7974 53.2903 23.1413C51.4318 23.0948 50.7349 21.5613 49.8522 20.3531C47.8079 17.4721 45.7637 14.5911 43.1154 12.2212C38.841 8.45724 32.7547 8.3643 28.2016 11.803C25.7392 13.6617 23.0444 15.1487 21.2789 17.7974C19.467 20.4926 19.7922 21.329 22.9051 21.7472C27.644 22.3048 32.1507 23.6989 36.3322 26.1152C40.7924 28.7175 45.2061 31.4591 50.0845 33.3178C51.6641 33.9219 53.2438 34.2007 54.9164 34.1078C56.5425 34.0149 58.2615 33.736 58.9585 32.2955C59.5624 30.9944 57.6576 30.5297 57.0536 29.6004C55.8456 27.7416 54.8235 25.8364 54.0801 23.7918C56.0314 23.8848 56.7748 25.5111 57.8434 26.7658C60.5381 29.9256 63.651 32.1561 68.1576 31.4591C70.2019 31.1338 70.8524 30.6227 69.7373 28.5316C67.2749 23.9312 66.2063 18.7732 64.5337 13.8476C64.1156 12.5929 64.162 11.4777 64.6266 10.2695C66.4386 10.6413 66.578 12.2676 66.9961 13.5688C68.2041 17.1468 69.2262 20.7714 70.4807 24.303C70.9917 25.7435 71.828 27.0911 72.7108 28.3457C73.64 29.6933 74.7086 31.552 76.4741 31.1338C77.9144 30.7621 76.8922 28.7639 77.1245 27.5558C77.8679 23.8847 78.5648 20.2137 78.9365 16.4498C79.9122 6.73791 74.8944 0.650547 65.1842 0.0929257C60.2593 -0.185885 59.6554 0.650547 61.3279 5.15798C58.3545 4.73977 56.3102 1.95166 52.965 2.46281ZM0.743381 68.3085C-1.3938 74.4424 1.44029 85.5483 5.99342 89.9628C10.1284 81.3662 17.2833 76.9052 25.0422 73.0948C29.0843 71.0966 33.3587 69.5167 37.4937 67.6115C41.768 65.6134 44.2769 58.829 42.5114 54.461C42.1862 53.671 41.7681 53.4387 41.0247 53.671C33.0799 55.9479 24.7635 55.2045 16.7258 56.645C14.5422 57.0167 12.405 57.6208 10.3143 58.3178C9.01336 58.736 7.75892 58.9684 6.41157 58.5966C6.64387 56.4591 8.45583 56.1338 9.94257 55.6227C15.332 53.7639 21.0002 53.5316 26.6219 53.1134C31.1286 52.7881 35.6817 52.7881 40.0955 51.5799C42.6043 50.8829 44.5557 49.6282 45.4384 47.0725C46.0889 45.1208 45.6243 43.8197 43.2548 43.7268C38.33 43.4944 33.6839 42.1468 29.0843 40.5669C24.8564 39.1264 20.4427 38.5688 16.0289 38.5223C11.5222 38.4758 7.89831 40.381 5.38944 44.1914C1.85843 49.4424 0.65046 55.2509 0.975683 61.7565C3.01995 60.8736 3.43809 57.8996 5.99342 58.8755C4.97129 62.4071 1.95136 64.7769 0.743381 68.3085ZM22.4405 36.3848C28.5268 37.5 34.2879 39.9628 40.3742 41.0781C43.8588 41.6821 47.2039 41.6357 50.1774 39.3587C50.9672 38.7546 51.8035 38.0576 51.6641 36.9424C51.5248 35.6877 50.3168 35.6413 49.434 35.3624C44.4628 33.736 40.0955 30.9015 35.403 28.6245C32.2436 27.0911 29.0843 25.4647 25.5533 24.7212C17.4692 23.0019 9.52442 29.1821 8.9669 37.7788C13.2877 35.223 17.7479 35.5019 22.4405 36.3848ZM93.2463 58.9684C93.7574 56.8308 93.4786 47.8624 90.3658 48.7918C84.3724 46.5613 84.0936 58.6431 81.6777 61.9888C79.494 65.0093 74.6157 65.5204 71.828 63.894C69.1798 62.3141 67.8324 58.3643 68.901 55.3439C69.8767 52.6952 72.432 51.4405 74.9409 52.4628C77.4033 53.4387 78.0537 55.4368 77.4033 57.7602C77.0316 59.2007 75.963 60.5948 74.244 59.7584C72.5249 58.9219 73.5471 57.9461 74.6157 57.1097C75.359 56.5056 75.0803 55.7621 74.3369 55.3439C73.4077 54.7862 72.4785 55.0186 71.7816 55.9015C70.2484 57.7602 71.1776 61.0595 73.5935 61.8494C75.963 62.6859 78.1931 62.3141 79.7263 60.223C81.6777 57.5743 82.0029 54.6933 80.3303 51.8123C78.379 48.4665 73.4541 46.7007 69.5979 47.7695C65.4629 48.9312 62.1178 53.0204 62.1178 56.8773C62.0713 65.1487 65.6952 69.9349 73.0825 71.4684C82.9786 73.4665 90.8304 68.5874 93.2463 58.9684ZM80.5162 23.2342C79.9122 25.697 79.3546 28.1598 79.3082 30.7621C79.2617 33.5966 81.2595 34.2007 83.2573 34.8978C85.8591 35.7807 85.5339 33.2714 86.0914 32.2026C88.1357 28.4387 89.9941 24.5353 91.8061 20.632C95.8481 12.0353 92.9676 5.52973 83.7684 2.74162C81.817 2.13754 79.8192 1.39404 77.3104 2.0446C82.7463 8.59664 82.3746 15.7992 80.5162 23.2342ZM92.5959 25.6505C91.1556 28.4851 89.7153 31.3662 88.0428 34.1078C86.5096 36.5706 87.3458 38.4758 88.9255 40.381C89.9012 41.5427 90.7839 41.961 92.1313 40.5669C95.0583 37.5465 98.1712 34.8048 101.191 31.8308C108.392 24.7676 107.603 16.8216 99.1468 11.1989C98.1712 10.5483 97.0561 10.0836 95.43 9.2472C97.8924 15.6598 95.1048 20.632 92.5959 25.6505ZM96.1734 65.8922C94.5937 65.7528 93.0605 65.5204 91.5738 65.9387C89.8547 66.4498 87.7175 67.3792 87.5781 69.0056C87.4388 70.539 89.8083 70.632 91.2021 71.1896C94.8725 72.6766 98.3105 74.7212 102.167 75.9294C108.996 78.0669 113.503 76.9981 116.105 65.381C109.508 68.4944 102.817 66.5892 96.1734 65.8922ZM91.8061 83.8755C93.9433 86.013 96.5915 86.4777 99.5185 85.5948C103.328 84.4331 106.488 82.3885 109.322 78.7639C102.26 80.158 96.9632 76.7658 91.4808 74.0242C86.556 71.5149 85.0228 71.236 80.8878 72.4442C84.6511 76.394 88.1821 80.2045 91.8061 83.8755ZM118.707 54.6933C118.8 53.7175 118.893 52.5093 117.963 51.9981C117.034 51.487 116.43 52.5558 115.733 53.0204C112.109 55.5297 107.881 56.4591 103.654 57.3885C100.448 58.0855 97.0096 58.2249 94.222 60.2695C93.4322 60.8271 92.3636 61.5242 92.6423 62.5465C92.9211 63.6617 94.1755 63.1041 94.9654 63.197C99.1004 63.6617 103.282 64.2193 107.463 64.4517C113.364 64.7769 117.081 62.1282 118.242 56.9238C118.428 56.2268 118.66 55.4833 118.707 54.6933ZM75.5913 73.9777C78.5183 80.4368 79.9122 86.803 84.0936 91.7751C87.2994 95.5855 92.2707 95.4926 98.0782 91.868C88.6003 88.6617 86.1843 77.1375 75.5913 73.9777ZM77.4033 84.5725C76.1024 81.5056 75.2661 78.1598 73.0825 75.5111C72.432 74.7212 71.5957 74.0706 70.62 74.4424C69.5515 74.8141 70.2019 75.8829 70.2019 76.6729C70.1554 79.7862 70.2019 82.8996 70.1554 86.013C70.0625 93.3085 73.2683 96.6543 80.5162 96.7007C81.9564 96.7007 83.3502 96.6543 85.8591 96.5613C80.7949 93.355 79.2153 88.894 77.4033 84.5725ZM59.8877 83.5502C56.9606 89.684 61.8855 96.5613 68.6222 96.0037C69.4585 95.9572 70.1554 95.5855 69.6444 94.6561C66.3921 89.3123 68.0647 83.4108 67.6466 77.7881C67.5072 76.0223 67.6466 74.1636 66.1134 72.2584C63.9297 76.2546 61.6996 79.7862 59.8877 83.5502ZM62.443 72.7695C62.9541 71.6543 63.5116 70.632 63.2328 69.3773C62.8611 67.3792 62.3036 66.4963 60.3523 68.3085C58.7726 69.7491 56.9142 70.8643 55.1022 72.0725C47.2504 77.4164 47.4362 83.4108 55.985 88.5688C56.2637 82.4349 60.027 77.881 62.443 72.7695ZM48.4119 75.2788C50.4097 71.9795 53.569 70.0279 56.6819 68.0297C57.7505 67.3327 58.7726 66.4498 59.6089 65.474C60.7704 64.1729 60.1664 62.5929 59.3301 61.5242C58.3545 60.316 57.1 61.1524 56.2637 61.9888C54.1266 64.1264 51.0602 64.2658 48.6907 65.9387C45.5778 68.1227 44.5557 71.2361 46.0424 74.6283C46.2747 75.1394 46.5999 75.6506 46.7858 76.0223C47.8544 76.3476 48.1331 75.79 48.4119 75.2788ZM47.6221 55.6691C45.1132 56.3662 43.7659 58.132 43.3942 60.4554C43.1154 62.1747 42.6508 64.4517 44.1375 65.5204C45.4384 66.4498 46.2747 64.1729 47.5292 63.6152C50.5491 62.2676 53.5226 60.7342 56.496 59.2007C57.4253 58.736 58.5403 57.9926 58.4009 56.8308C58.2615 55.4368 56.7283 55.8085 55.7062 55.3903C53.058 55.2509 50.3633 54.9256 47.6221 55.6691ZM72.8966 44.2379C73.5471 43.5873 72.8037 42.9368 72.6179 42.2862C72.1533 40.5669 71.7351 38.8011 71.1776 37.1282C70.0161 33.6431 66.1134 31.9702 62.7682 33.4572C62.0713 33.7825 60.724 34.3401 61.8855 35.1301C64.766 37.1282 65.974 40.2881 68.1112 42.7974C68.7616 43.5873 69.8767 43.9591 70.4342 44.2844C71.5493 44.4703 72.3391 44.7955 72.8966 44.2379ZM61.6996 38.7546C60.0735 36.803 58.1222 36.5706 55.8456 37.4535C54.8235 37.8253 53.569 38.197 53.4296 39.3587C53.2438 40.9851 54.8699 40.5669 55.7527 40.9387C57.8899 41.9145 59.5624 43.4015 61.1421 45.0743C62.9076 47.026 64.8589 47.6301 67.4607 45.7249C65.5094 43.355 63.6045 41.0781 61.6996 38.7546ZM80.5162 44.7491C80.3303 45.8178 79.9586 47.1189 81.0737 47.6766C82.1887 48.2342 82.514 46.7472 83.2109 46.236C83.3967 46.0966 83.5361 45.9108 83.7219 45.7249C88.368 40.8922 87.8105 38.3829 81.1666 35.5019C81.306 38.894 80.9808 41.8216 80.5162 44.7491ZM51.1066 48.6059C49.0624 48.4201 46.9716 48.4201 45.6243 50.4647C45.1132 51.2546 44.4628 52.2305 45.0667 53.1134C45.6707 54.0427 46.5999 53.2063 47.2969 52.9275C50.2703 51.8123 53.1973 53.1134 56.1708 52.974C57.3323 52.9275 58.5403 53.3457 60.12 52.2769C57.1929 50.3717 54.3589 48.9312 51.1066 48.6059ZM75.0803 33.2714C74.4298 32.9926 73.6864 32.6208 73.036 33.0855C72.1997 33.6431 72.9431 34.3401 73.1289 34.9442C73.7794 37.3606 74.3369 39.7769 75.0803 42.1468C75.4055 43.2621 75.9165 44.7026 77.3104 44.5632C78.6577 44.4238 78.8436 42.9368 79.1688 42.0074C79.9586 37.9182 78.379 34.6189 75.0803 33.2714Z" fill="white"/>
<path d="M172.09 45.0279H172.322L178.409 12.1747H190.302L178.687 62.8717H167.63L159.081 31.5985H158.895L150.439 62.8717H139.382L127.72 12.1747H139.66L145.793 45.0743L146.026 45.1208L154.621 12.1747H163.495L172.09 45.0279Z" fill="white"/>
<path d="M224.451 41.171H206.61V53.8104H228.028V62.8717H194.856V12.1747H228.075V21.2361H206.657V32.1097H224.497V41.171H224.451Z" fill="white"/>
<path d="M274.675 55.855C272.909 57.9925 270.447 59.8048 267.241 61.3383C264.035 62.8253 259.9 63.6152 254.883 63.6152C248.61 63.6152 243.5 61.71 239.551 57.8531C235.648 53.9963 233.65 49.0242 233.65 42.8439V32.2026C233.65 26.1152 235.555 21.0966 239.365 17.2398C243.175 13.3829 248.099 11.4312 254.093 11.4312C260.551 11.4312 265.476 12.8717 268.774 15.7528C272.073 18.6338 273.653 22.5836 273.56 27.6022L273.513 27.7881H262.502C262.502 25.3253 261.852 23.4665 260.504 22.2584C259.203 21.0502 257.206 20.4461 254.511 20.4461C251.77 20.4461 249.586 21.5149 247.914 23.6989C246.241 25.8364 245.405 28.671 245.405 32.1097V42.7509C245.405 46.2825 246.241 49.1171 247.914 51.2546C249.586 53.3922 251.909 54.461 254.883 54.461C257.02 54.461 258.739 54.2751 259.993 53.9498C261.248 53.6245 262.223 53.1598 262.92 52.5557V43.5873H253.953V35.7807H274.675V55.855Z" fill="white"/>
<path d="M135.944 94.052H134.364V74.7212H135.944V94.052Z" fill="white" stroke="white" stroke-miterlimit="10"/>
<path d="M155.503 94.052H153.924L142.959 77.5093H142.866V94.052H141.287V74.7212H142.866L153.831 91.2175H153.924V74.7212H155.503V94.052Z" fill="white" stroke="white" stroke-miterlimit="10"/>
<path d="M174.181 91.4498C173.762 92.1468 172.973 92.7974 171.811 93.4015C170.65 94.0056 169.209 94.3308 167.49 94.3308C165.26 94.3308 163.448 93.5874 162.054 92.0539C160.661 90.5204 159.917 88.5223 159.917 86.1059V82.5743C159.917 80.2045 160.614 78.2528 161.961 76.7193C163.355 75.2323 165.121 74.4424 167.304 74.4424C169.395 74.4424 171.068 75 172.322 76.1152C173.577 77.2305 174.134 78.6245 174.134 80.3439L174.088 80.4368H172.647C172.647 79.0892 172.183 78.0204 171.254 77.1375C170.324 76.2547 169.023 75.8364 167.351 75.8364C165.632 75.8364 164.238 76.487 163.169 77.7416C162.101 78.9963 161.59 80.6227 161.59 82.5743V86.1524C161.59 88.1506 162.147 89.8234 163.262 91.1245C164.377 92.4256 165.818 93.0762 167.583 93.0762C168.931 93.0762 170.046 92.8903 170.882 92.4721C171.718 92.0539 172.322 91.5892 172.694 91.0316V86.0595H167.49V84.7119H174.274V91.4498H174.181Z" fill="white" stroke="white" stroke-miterlimit="10"/>
<path d="M189.42 84.6654H180.778V92.658H190.813V94.0056H179.198V74.6747H190.721V76.0223H180.778V83.2714H189.42V84.6654Z" fill="white" stroke="white" stroke-miterlimit="10"/>
<path d="M208.376 94.052H206.796L195.831 77.5093H195.738V94.052H194.159V74.7212H195.738L206.703 91.2175H206.796V74.7212H208.376V94.052Z" fill="white" stroke="white" stroke-miterlimit="10"/>
<path d="M215.345 94.052H213.719V74.7212H215.298V94.052H215.345Z" fill="white" stroke="white" stroke-miterlimit="10"/>
<path d="M230.909 84.6654H222.267V92.658H232.303V94.0056H220.688V74.6747H232.21V76.0223H222.267V83.2714H230.909V84.6654Z" fill="white" stroke="white" stroke-miterlimit="10"/>
<path d="M237.228 85.316V94.052H235.648V74.7212H242.06C244.15 74.7212 245.73 75.1859 246.845 76.0688C247.96 76.9981 248.518 78.2993 248.518 80.0651C248.518 81.0874 248.239 82.0167 247.635 82.8067C247.031 83.5967 246.194 84.2007 245.126 84.5725C246.334 84.8513 247.17 85.4089 247.728 86.1989C248.239 86.9888 248.518 87.9647 248.518 89.1264V90.9387C248.518 91.5427 248.61 92.1004 248.75 92.5651C248.889 93.0297 249.122 93.448 249.447 93.7268V94.052H247.821C247.495 93.7268 247.263 93.3085 247.124 92.7045C246.984 92.1468 246.938 91.5428 246.938 90.8922V89.1264C246.938 87.9182 246.566 86.9888 245.776 86.3383C245.033 85.6413 243.964 85.316 242.571 85.316H237.228ZM237.228 83.9684H241.874C243.639 83.9684 244.894 83.5967 245.683 82.8996C246.473 82.2026 246.891 81.2268 246.891 80.0651C246.891 78.8104 246.473 77.7881 245.683 77.1375C244.894 76.4405 243.686 76.1152 242.06 76.1152H237.228V83.9684Z" fill="white" stroke="white" stroke-miterlimit="10"/>
<path d="M256.416 69.3308H258.367L258.414 69.4238L255.115 72.8624H253.675L256.416 69.3308ZM255.394 94.052H253.814V74.7212H255.394V94.052Z" fill="white" stroke="white" stroke-miterlimit="10"/>
<path d="M271.097 88.6617H262.641L260.69 94.052H259.064L266.173 74.7212H267.659L274.721 94.052H273.095L271.097 88.6617ZM263.106 87.2212H270.586L266.916 76.9981H266.823L263.106 87.2212Z" fill="white" stroke="white" stroke-miterlimit="10"/>
</g>
<defs>
<clipPath id="clip0_15_700">
<rect width="275" height="100" fill="white"/>
</clipPath>
</defs>
</svg>
